<svg width="19" height="20" viewBox="0 0 19 20" fill="none" xmlns="http://www.w3.org/2000/svg">
<path d="M3.20235 18.1422C3.26364 18.8126 3.81517 19.3002 4.48927 19.3002H15.0705C15.7446 19.3002 16.2962 18.7923 16.3575 18.1422L17.5422 5.79004H2.01758L3.20235 18.1422Z" fill="white"/>
<path d="M17.5428 1.93002H12.3748V1.27991C12.3748 0.568848 11.8028 0 11.0878 0H8.49361C7.77866 0 7.20671 0.568848 7.20671 1.27991V1.93002H2.01823C1.30328 1.93002 0.731323 2.49887 0.731323 3.20993C0.731323 3.92099 1.30328 4.48984 2.01823 4.48984H17.5428C18.2578 4.48984 18.8297 3.92099 18.8297 3.20993C18.8297 2.49887 18.2578 1.93002 17.5428 1.93002Z" fill="white"/>
</svg>
